<svg width="1920" height="303" viewBox="0 0 1920 303" fill="none" xmlns="http://www.w3.org/2000/svg">
  <path opacity="0.05" d="M1811.88 88.2401C1811.88 84.5641 1812.34 79.9691 1813.98 76.7525C1814.44 75.8335 1814.44 75.6038 1815.38 74.6848C1816.54 73.536 1818.41 73.7658 1819.58 73.0765C1820.97 71.9277 1822.14 69.4005 1822.14 67.7922C1822.14 65.7244 1820.28 63.8864 1820.74 61.8186C1820.97 60.6699 1821.91 60.4401 1822.61 59.5211C1824.71 56.3046 1828.21 52.1691 1825.41 48.493C1824.47 47.3443 1823.07 46.655 1822.14 45.736C1820.74 44.5872 1820.04 42.979 1818.64 41.8302C1815.61 39.5327 1811.65 37.9244 1808.85 35.1674C1806.51 32.8699 1804.65 30.3426 1802.08 28.0451C1799.75 25.9773 1797.88 23.9096 1796.02 21.3823C1792.99 16.5575 1791.12 17.017 1785.76 17.4765C1782.26 17.7062 1778.99 15.8682 1776.43 13.5707C1770.13 7.82691 1765.23 2.31286 1756.6 0.474839C1750.77 -0.903674 1742.37 0.934343 1736.77 3.23186C1732.58 5.06988 1728.61 7.59715 1724.41 9.89467C1720.21 12.1922 1716.48 14.0302 1713.68 17.936C1709.25 24.5988 1709.72 32.1806 1709.72 39.5327C1709.72 45.0467 1712.05 50.331 1710.65 55.8451C1709.25 61.5889 1705.99 62.0484 1701.32 64.1162C1699.22 65.0352 1696.89 66.4137 1695.26 68.022C1693.62 69.4005 1692.92 71.4682 1691.53 73.0765C1690.59 74.455 1688.96 76.293 1687.56 77.212C1685.23 78.3608 1681.5 76.9823 1678.93 76.0633C1674.5 74.455 1670.77 73.0765 1665.87 73.0765C1661.44 73.0765 1657.94 74.2253 1653.74 76.0633C1648.38 78.3608 1643.01 80.8881 1638.58 84.5641C1635.08 87.5509 1632.51 90.5377 1630.18 94.4435C1627.85 98.3492 1626.22 102.944 1623.42 106.62C1619.45 111.905 1612.69 115.81 1605.92 115.81C1601.03 115.81 1596.83 114.202 1592.63 112.364C1589.36 110.756 1586.8 109.837 1583.07 110.526C1577.47 111.445 1571.87 111.905 1566.27 112.594C1555.54 113.743 1545.98 118.567 1535.49 120.865C1527.09 122.703 1518.69 124.081 1510.06 125.23C1504 126.149 1497.47 128.447 1491.64 130.974C1484.64 133.961 1478.11 135.799 1470.64 137.177C1458.05 139.475 1444.99 141.083 1432.39 143.381C1424.46 144.759 1416.53 145.908 1408.83 147.976C1400.2 150.273 1391.57 150.962 1382.94 152.111C1370.82 153.72 1359.15 157.855 1347.03 159.234C1331.86 161.072 1316 156.247 1301.08 154.409C1288.01 152.801 1275.19 151.422 1261.89 151.422C1257.69 151.422 1253.73 151.192 1249.53 151.422C1244.86 151.652 1240.67 153.26 1236 153.03C1226.44 152.571 1216.88 151.881 1207.31 150.733C1204.98 150.503 1192.15 149.354 1193.32 154.179C1194.02 156.936 1201.48 158.085 1203.58 158.774C1209.41 160.382 1215.01 161.991 1221.07 162.91C1231.8 164.518 1242.07 162.91 1252.56 162.91C1262.59 162.91 1271.92 165.667 1281.72 166.815C1297.34 168.653 1312.74 166.815 1328.13 166.356C1336.53 166.126 1344.69 167.505 1352.86 167.734C1360.55 167.964 1368.25 167.734 1375.71 167.734C1382.48 167.734 1389.24 167.275 1396.01 167.964C1397.87 168.194 1404.4 168.424 1404.87 171.181C1405.34 173.478 1399.74 174.857 1398.34 175.316C1392.04 177.384 1385.51 176.695 1378.98 177.614C1370.58 178.762 1362.65 180.371 1354.72 183.817C1350.99 185.425 1342.59 187.034 1340.73 190.939C1341.89 194.845 1350.76 193.237 1353.32 193.237C1363.35 193.237 1373.15 193.467 1383.18 192.548C1398.81 190.939 1414.43 190.25 1430.06 189.561C1444.99 188.872 1459.91 187.263 1474.84 186.574C1508.66 184.736 1542.95 189.101 1576.77 184.736C1594.03 182.439 1608.96 174.397 1625.75 170.951C1637.65 168.424 1648.84 169.113 1660.74 170.262C1669.6 171.181 1678.7 171.41 1687.56 173.248C1695.26 174.857 1702.49 174.857 1710.42 175.086C1717.41 175.086 1724.41 174.167 1731.64 173.938C1737.47 173.708 1744.47 173.019 1749.6 175.776C1753.1 177.614 1754.27 180.141 1753.57 183.817C1752.87 187.493 1750.3 190.71 1746.34 190.939C1741.91 191.169 1737.24 189.791 1732.81 189.331C1730.01 189.101 1727.21 188.872 1724.41 188.412C1722.78 188.182 1720.45 187.493 1719.05 188.642C1719.98 189.791 1722.78 191.629 1724.18 192.318C1729.08 195.305 1736.07 196.453 1741.67 197.372C1751.47 198.751 1761.03 196.913 1770.83 196.224C1777.13 195.764 1784.59 194.156 1790.89 194.845C1794.39 195.305 1797.88 196.224 1801.62 196.683C1810.01 198.062 1818.64 199.44 1827.04 199.44C1836.84 199.21 1846.63 197.832 1856.19 196.683C1867.16 195.534 1878.12 195.075 1888.85 193.467C1902.61 191.399 1916.14 187.493 1929.9 185.885C1942.49 184.277 1956.02 184.966 1968.62 185.885C1982.85 187.034 1997.07 186.115 2011.07 183.587C2018.07 182.209 2025.06 180.141 2032.06 179.682C2038.59 179.222 2045.12 179.452 2051.65 179.682C2062.85 179.682 2073.11 178.762 2084.31 176.695C2095.04 174.857 2105.76 174.397 2116.73 173.248C2125.82 172.329 2135.39 171.41 2144.48 171.41C2153.11 171.41 2161.74 171.87 2170.37 170.951C2173.87 170.491 2177.14 170.262 2180.64 170.262C2182.04 170.262 2185.53 171.181 2186 169.113C2185.3 167.734 2182.97 166.815 2181.57 166.126C2176.9 163.369 2172.24 162.22 2167.11 161.072C2160.81 159.693 2154.51 158.544 2148.45 156.936C2142.62 155.558 2136.79 153.26 2130.72 152.341C2126.06 151.652 2118.36 153.49 2114.63 150.043C2112.99 148.435 2111.83 145.908 2110.43 144.07C2108.8 141.543 2106.23 140.394 2104.36 138.096C2102.5 135.799 2102.97 132.582 2102.03 129.825C2101.1 127.528 2099.93 126.609 2097.83 125.23C2095.27 123.392 2092.24 122.243 2089.67 120.635C2086.87 119.027 2084.54 118.797 2081.51 118.108C2077.78 117.189 2074.51 115.581 2070.78 114.891C2065.88 114.202 2054.92 113.053 2052.82 107.539C2051.89 105.012 2053.52 101.336 2053.98 98.579C2054.68 94.6732 2055.85 90.0782 2055.38 85.9426C2054.68 80.6583 2051.65 76.0633 2049.32 71.4682C2047.22 67.3327 2044.65 63.8864 2042.79 59.5211C2041.16 55.6153 2039.76 52.6286 2037.42 49.1823C2035.79 46.655 2033.46 44.3575 2032.06 41.8302C2029.96 38.1542 2029.96 33.7889 2027.39 30.3426C2025.06 27.1261 2020.4 24.8286 2016.67 22.7608C2010.6 19.5443 2004.07 16.3277 1997.77 13.5707C1987.98 8.97567 1977.48 4.61038 1966.52 8.05666C1960.45 9.89468 1953.46 14.0302 1948.79 18.3955C1945.06 21.612 1943.43 25.7476 1940.86 29.8831C1937.83 34.9377 1934.1 39.5327 1930.13 44.1277C1928.27 46.1955 1924.77 52.3988 1921.97 52.8583C1917.77 53.7773 1915.44 47.574 1911.47 46.8848C1909.84 46.655 1908.44 47.1145 1906.81 47.3443C1905.18 47.3443 1903.31 47.3443 1901.68 47.3443C1899.34 47.3443 1898.64 47.1145 1897.48 49.6418C1896.31 51.9393 1895.38 54.0071 1894.91 56.5344C1892.81 56.0748 1891.18 52.8583 1889.78 51.4798C1886.52 47.8038 1883.48 47.574 1879.05 46.4253C1870.89 44.1277 1861.56 42.06 1854.1 46.8848C1848.96 50.1013 1845.47 54.2368 1841.97 59.2914C1839.63 62.7377 1840.33 65.4947 1840.1 69.4005C1839.87 72.617 1838.23 75.6038 1837.54 78.8203C1837.07 80.6583 1835.67 85.2534 1834.04 86.6319C1831.7 88.6996 1826.57 88.6997 1823.77 90.3079C1823.31 90.5377 1822.84 90.5377 1822.37 90.9972C1821.91 91.4567 1821.91 92.6054 1821.44 93.0649C1820.28 93.9839 1818.64 93.7542 1816.78 93.7542C1813.28 92.8352 1811.88 90.9972 1811.88 88.2401Z" fill="url(#paint0_linear_0_1)"/>
  <path opacity="0.05" d="M208.626 124.815C209.981 123.842 211.213 122.87 212.446 121.897C216.143 118.979 220.086 116.426 223.906 113.63C227.11 111.32 227.973 109.01 229.698 105.727C230.437 104.39 230.93 103.296 232.039 102.201C232.655 101.594 233.518 101.107 234.134 100.378C235.736 98.5541 236.229 96.001 237.585 94.1773C238.817 92.5968 240.049 91.2595 241.035 89.4358C244.732 83.2354 250.524 78.1292 257.917 76.7918C265.927 75.3329 272.951 78.9802 280.961 78.8586C284.288 78.8586 287.616 78.6155 290.82 79.2234C294.64 79.9528 298.583 82.3844 301.91 84.4512C305.73 86.8827 310.536 89.9221 312.631 94.1773C314.726 98.6757 315.835 104.39 316.328 109.253C316.944 114.359 317.93 118.979 317.93 124.085C317.93 126.031 317.93 127.976 317.93 129.921C317.93 132.109 318.423 132.717 319.409 134.784C320.641 137.216 320.641 140.255 322.859 142.079C325.57 144.267 329.513 145.24 332.964 145.361C335.182 145.361 336.784 144.875 338.756 144.267C340.604 143.781 341.097 143.781 342.576 144.875C343.931 145.848 345.04 146.942 346.273 148.158C347.259 149.13 348.737 149.86 349.353 150.954C350.955 153.385 350.709 157.033 350.709 159.707C350.709 164.084 353.297 167.367 355.515 171.014C357.363 173.932 357.117 176.971 357.979 180.132C358.965 183.537 360.69 186.819 363.032 189.372C367.222 194.114 373.753 193.749 378.682 197.153C383.488 200.436 389.156 202.259 395.071 202.746C398.645 202.989 403.081 202.503 406.655 201.895C409.982 201.408 413.309 200.071 415.897 198.004C421.319 193.992 424.154 188.035 430.438 185.36C435.86 183.05 441.159 180.862 446.088 177.579C448.183 176.12 450.278 174.297 452.619 173.081C454.591 172.108 457.056 171.865 459.151 171.379C464.696 170.042 469.625 167.002 475.17 165.422C477.881 164.571 480.839 164.327 483.796 164.692C486.754 165.057 488.233 166.394 490.328 168.339C491.93 169.798 493.532 170.771 495.257 171.987C497.352 173.446 498.091 177.215 499.077 179.525C499.939 181.47 500.679 183.537 502.034 185.117C503.883 187.184 505.485 188.4 506.964 190.831C510.044 195.451 514.48 197.761 519.903 198.126C522.121 198.247 524.339 198.612 526.434 199.342C528.405 200.071 529.884 201.53 532.102 202.016C538.387 203.232 544.672 200.679 550.34 204.813C552.558 206.393 554.284 207.974 556.871 209.068C560.691 210.77 564.142 211.135 568.332 211.135C572.398 211.135 576.834 210.527 580.778 211.256C583.612 211.742 586.446 213.08 589.281 213.445C591.745 213.809 593.347 213.809 595.565 215.025C597.907 216.362 599.878 218.672 601.85 220.374C603.945 222.32 604.931 222.806 607.519 223.779C610.353 224.873 611.955 227.426 614.666 228.885C618.609 230.952 622.799 228.642 626.742 229.006C629.577 229.25 632.164 229.857 634.752 230.83C637.217 231.681 639.805 233.019 642.269 233.626C645.596 234.477 649.047 235.085 652.497 235.693C655.085 236.058 658.782 235.815 661 237.274C661 239.219 656.564 239.948 655.208 240.313C649.293 242.015 642.269 242.502 636.108 242.988C626.373 243.596 616.514 244.447 606.779 244.447C591.129 244.447 575.356 243.353 559.706 242.745C540.728 242.015 521.751 241.043 502.774 240.556C478.251 239.827 453.729 239.948 429.206 239.462C404.56 238.976 380.161 236.909 355.515 237.031C330.253 237.274 305.237 238.003 279.975 236.909C261.121 236.058 242.144 235.693 223.29 234.599C205.668 233.626 188.17 230.952 170.548 229.493C146.148 227.426 121.503 227.304 96.98 227.304C88.4772 227.304 79.9744 227.304 71.3483 227.304C63.8314 227.304 56.1911 227.548 48.6742 226.332C43.8682 225.602 39.3088 224.265 34.5028 223.657C31.5453 223.292 28.8343 223.414 26 222.441C34.1331 221.226 41.6501 217.7 49.7832 215.998C54.5892 214.903 59.0254 213.688 63.7081 212.107C67.1586 211.013 71.1019 210.162 74.0594 207.852C78.4956 204.326 79.235 199.463 82.439 195.208C85.15 191.682 90.0792 190.345 92.5438 186.698C94.3922 184.023 95.378 180.862 95.9942 177.822C97.3497 171.5 98.9517 165.786 102.402 160.194C106.962 153.021 111.768 146.577 119.654 143.051C124.337 140.985 129.759 140.134 134.688 139.039C138.508 138.188 141.835 138.188 145.656 139.039C151.324 140.377 157.362 141.106 162.538 143.538C166.235 145.361 169.316 148.522 173.382 149.495C175.477 149.981 177.818 150.589 180.036 150.346C181.762 150.103 185.459 149.738 186.814 148.766C187.923 148.036 188.416 146.577 188.909 145.483C189.772 143.781 190.265 142.93 191.62 141.592C194.454 138.553 196.303 135.027 199.014 131.866C199.63 131.137 200.369 130.407 201.232 129.799C202.587 128.827 204.189 128.097 205.668 127.125C207.024 126.031 207.763 125.423 208.626 124.815Z" fill="url(#paint1_linear_0_1)"/>
  <path opacity="0.05" d="M110.526 135.278C111.412 134.988 112.446 134.843 113.184 134.407C116.285 132.809 119.977 132.228 123.521 132.519C135.186 133.535 144.489 139.49 153.792 146.171C160.732 151.109 165.605 159.097 167.82 167.085C169.149 172.169 169.592 177.397 169.888 182.626C170.035 185.095 169.297 187.419 169.297 189.888C169.149 191.776 169.297 193.809 169.297 195.842C169.297 199.764 169.149 203.83 169.297 207.752C169.445 210.802 169.74 214.288 171.955 216.466C173.284 217.773 174.761 219.516 176.237 220.678C178.6 222.276 181.849 223.438 184.359 224.745C188.05 226.633 192.628 228.23 196.763 228.376C199.864 228.521 201.045 227.214 203.26 225.326C205.918 223.292 207.838 222.857 211.234 223.292C215.369 223.873 219.356 224.599 223.195 222.421C225.41 221.259 226.886 219.226 229.101 218.064C231.907 216.466 234.713 215.159 237.961 214.578C241.653 213.852 246.821 211.818 250.513 213.271C254.795 215.014 258.339 218.354 262.031 220.968C273.106 228.666 268.528 243.626 272.22 254.518C273.401 258.149 276.502 260.183 279.455 262.361C283.885 265.556 288.758 268.897 293.779 271.075C297.618 272.673 302.491 271.802 306.478 271.802C310.317 271.802 313.861 271.802 317.553 272.383C320.211 272.818 323.017 272.092 325.675 272.528C328.923 272.964 331.434 275.433 333.058 278.192C335.125 281.678 336.602 285.744 338.226 289.375C339.85 293.297 338.964 296.347 335.125 298.38C328.923 301.575 321.245 299.833 314.6 299.542C299.981 299.106 285.51 298.235 270.891 299.106C250.513 300.413 230.283 302.447 209.757 302.447C184.802 302.447 160.142 300.559 135.334 297.654C115.694 295.33 96.3503 290.683 77.1538 286.035C61.3536 282.114 44.9628 281.968 28.8673 280.952C14.5437 280.08 0.515533 277.756 -13.808 276.594C-26.5072 275.578 -39.2064 273.399 -51.9057 272.673C-64.9002 271.947 -77.8948 272.237 -90.8893 273.69C-95.9099 274.271 -100.783 275.287 -105.804 276.159C-110.086 277.03 -114.368 277.466 -118.65 277.466C-120.865 277.902 -123.08 277.611 -125 276.885C-116.731 274.271 -107.132 272.383 -100.635 266.428C-96.5006 262.652 -94.8763 258.295 -93.5473 253.066C-93.252 251.759 -92.5136 250.887 -91.6276 249.871C-88.6743 246.385 -86.4594 242.754 -84.0967 238.978C-82.7677 236.654 -81.5864 234.621 -80.8481 232.152C-79.9621 229.247 -79.8144 226.342 -78.6331 223.437C-78.1901 222.276 -77.4518 220.533 -76.5658 219.661C-74.9415 218.209 -71.9882 217.773 -70.2162 216.757C-68.1489 215.74 -66.2292 214.433 -64.6049 212.835C-61.9469 210.076 -61.2086 207.026 -60.1749 203.395C-57.8123 194.826 -52.9393 186.838 -45.9991 181.173C-42.7504 178.559 -39.2064 176.526 -35.0718 175.8C-29.9035 174.783 -23.8493 174.492 -18.681 174.202C-3.32378 173.621 8.93245 184.659 23.8466 185.676C27.0953 185.821 32.4112 185.53 33.2972 181.9C33.7402 179.866 33.5926 177.688 34.1832 175.654C35.0692 172.604 37.1365 170.571 39.3515 168.392C42.3048 165.633 45.2581 163.309 48.5068 160.985C50.8694 159.242 53.0844 157.064 55.5947 155.466C57.219 154.304 58.6957 153.288 60.0247 151.69C61.9443 149.221 63.2733 147.914 66.0789 146.316C68.1462 145.154 70.0659 143.993 72.4285 144.428C74.6435 144.864 76.1201 146.462 77.8921 147.623C81.1408 149.947 84.0941 147.043 87.6381 146.171C90.0007 145.59 92.068 145.445 94.4307 144.573C96.2027 143.993 98.1223 143.847 99.7466 143.121C101.076 142.54 101.962 141.233 103.291 140.652C103.881 140.362 104.472 140.652 105.063 140.216C105.801 139.635 105.949 138.619 106.539 137.893C107.13 136.004 108.902 135.569 110.526 135.278Z" fill="url(#paint2_linear_0_1)"/>
  <path opacity="0.05" d="M1284.14 267.73C1283.95 267.827 1283.66 267.73 1283.36 267.439C1282.78 266.857 1282.97 266.275 1282.78 265.498C1282.68 265.207 1282.49 264.916 1282.49 264.625C1282.49 264.334 1282.78 263.946 1282.78 263.558C1282.78 262.685 1283.07 261.909 1283.17 261.036C1283.27 259.677 1283.17 255.506 1281.02 255.894C1279.56 256.088 1276.92 257.543 1275.95 255.603C1275.26 254.244 1276.92 252.401 1275.75 251.237C1275.26 250.752 1274.58 250.461 1274 249.975C1273.31 249.393 1272.82 249.102 1271.95 248.811C1271.36 248.617 1270.68 248.326 1270.09 248.229C1269.51 248.229 1268.92 248.423 1268.34 248.52C1267.46 248.617 1267.07 249.005 1266.38 249.587C1265.02 250.655 1263.16 251.043 1261.6 251.722C1260.72 252.11 1259.75 252.013 1258.87 252.304C1257.89 252.498 1257.41 253.08 1256.82 253.856C1256.04 254.729 1255.45 255.7 1255.16 256.864C1254.77 258.513 1254.77 260.259 1254.58 262.006C1254.38 263.364 1254.38 264.043 1252.82 264.043C1251.35 264.043 1249.11 263.558 1247.84 264.431C1246.77 265.11 1245.89 266.081 1245.01 266.954C1244.23 267.73 1243.16 268.215 1242.38 268.991C1241.11 270.252 1240.33 271.708 1239.94 273.357C1239.45 275.2 1239.55 276.85 1237.79 278.111C1237.01 278.693 1235.84 278.887 1234.86 278.984C1233.59 279.081 1232.72 278.596 1231.45 278.402C1230.57 278.208 1229.4 278.208 1228.52 278.402C1227.25 278.693 1226.18 279.76 1224.91 280.148C1223.15 280.73 1221.4 280.73 1219.64 281.021C1218.17 281.312 1216.81 281.797 1215.44 282.38C1213.69 283.059 1211.83 282.865 1210.08 282.865C1209.39 282.865 1208.81 282.865 1208.22 283.156C1207.64 283.447 1207.34 283.835 1206.66 284.029C1205.29 284.32 1203.93 283.641 1202.56 283.641C1201.39 283.641 1200.12 284.029 1198.95 284.029C1197.68 284.029 1196.51 283.932 1195.24 284.126C1193.39 284.32 1191.53 284.805 1189.87 285.484C1188.12 286.163 1185.29 285.969 1183.43 285.775C1180.6 285.387 1177.97 284.514 1175.14 284.126C1173.38 283.932 1171.63 284.029 1169.97 284.029C1168.31 284.029 1166.65 284.029 1164.99 284.32C1161.28 285.096 1157.57 286.357 1153.77 286.939C1151.72 287.23 1149.86 287.036 1147.81 286.939C1144.89 286.745 1141.96 286.842 1139.03 286.648C1133.47 286.26 1128 286.163 1122.54 286.163C1118.73 286.163 1114.93 286.066 1111.02 285.872C1107.61 285.775 1104.19 286.26 1100.87 286.745C1099.02 287.036 1097.26 287.425 1095.51 288.007C1093.85 288.492 1091.7 288.977 1090.43 290.335C1088.68 292.178 1092.77 292.469 1093.85 292.566C1098.34 292.663 1102.83 291.402 1107.22 292.178C1110.54 292.761 1113.76 293.828 1116.98 294.119C1120.68 294.41 1124.3 293.634 1128 293.634C1132 293.634 1135.71 292.955 1139.71 292.663C1143.81 292.372 1148.01 292.469 1152.11 292.566C1156.01 292.663 1159.91 294.313 1163.92 293.925C1165.97 293.731 1168.31 293.343 1170.26 294.41C1170.36 296.738 1162.65 296.253 1163.23 298.097C1164.79 298.679 1166.94 297.805 1168.5 297.514C1170.16 297.223 1171.82 297.126 1173.48 296.932C1175.63 296.641 1177.29 297.32 1179.33 297.805C1182.85 298.485 1186.46 298.388 1189.97 298.97C1195.05 299.843 1200.02 299.358 1205.1 298.873C1209.98 298.388 1215.25 297.417 1220.22 298.194C1224.23 298.873 1228.13 298.873 1232.13 299.261C1234.37 299.455 1236.62 299.649 1238.86 299.746C1240.82 299.746 1242.67 299.164 1244.62 299.358C1245.69 299.455 1246.96 299.552 1246.96 300.813C1246.96 301.201 1246.87 301.589 1247.16 301.88C1247.55 302.268 1248.72 301.589 1249.21 301.589C1250.77 301.395 1252.43 301.589 1254.09 301.589C1255.16 301.589 1256.23 301.589 1257.31 301.589C1259.26 301.589 1261.21 301.201 1263.16 301.201C1265.51 301.201 1267.85 301.589 1270.19 301.589C1272.34 301.589 1274.48 301.589 1276.63 301.298C1279.56 300.813 1282.29 299.94 1285.22 299.455C1288.05 299.067 1290.88 298.679 1293.81 298.485C1299.56 298.097 1305.32 297.805 1311.08 297.417C1314.1 297.223 1317.13 296.932 1320.25 296.932C1323.77 296.932 1327.28 296.641 1330.79 296.835C1334.6 297.029 1338.4 297.126 1342.21 296.641C1345.33 296.253 1348.46 295.768 1351.48 295.186C1353.63 294.798 1355.68 294.507 1357.82 294.507C1359.48 294.507 1360.95 294.798 1362.61 295.186C1363.58 295.38 1364.65 295.768 1365.73 295.574C1365.92 295.574 1366.9 295.186 1367 294.895C1367.09 294.216 1364.75 293.925 1364.26 293.828C1364.36 293.343 1364.95 293.343 1364.95 292.858C1364.95 292.566 1364.36 291.596 1364.26 291.208C1364.07 289.559 1365.14 287.813 1365.53 286.26C1365.83 285.096 1366.41 283.253 1365.63 282.186C1365.24 281.7 1364.65 281.409 1364.26 280.827C1363.87 280.245 1363.68 279.469 1363.48 278.887C1363 277.432 1363 275.782 1363.29 274.23C1363.48 272.872 1363.68 271.805 1363.29 270.446C1363.09 269.864 1362.9 269.379 1362.7 268.894C1362.41 268.118 1362.31 267.051 1361.73 266.372C1359.87 264.043 1358.02 261.715 1355.87 259.677C1354.7 258.61 1353.92 258.222 1352.36 258.028C1349.33 257.64 1346.5 258.707 1343.58 259.386C1341.82 259.774 1339.77 260.162 1338.7 261.909C1338.31 262.491 1338.11 263.267 1337.92 263.946C1337.72 264.528 1337.72 265.789 1337.33 266.372C1336.26 267.924 1334.6 265.789 1334.4 264.625C1334.01 262.006 1335.77 259.677 1335.87 257.058C1335.87 255.117 1336.26 253.274 1336.45 251.431C1336.74 249.296 1337.23 247.55 1336.06 245.513C1335.18 244.057 1334.21 242.99 1333.62 241.438C1332.84 239.4 1332.55 237.266 1331.67 235.229C1329.82 231.348 1325.72 228.437 1321.72 227.273C1319.76 226.691 1317.81 227.176 1315.86 227.467C1312.45 227.952 1309.03 229.117 1306.1 230.863C1304.15 231.93 1302.2 232.997 1300.73 234.647C1299.95 235.52 1299.08 236.49 1298.69 237.557C1298.29 238.721 1298.39 240.08 1298.39 241.244C1298.39 243.863 1297.71 246.483 1297.9 249.199C1297.9 249.975 1298 250.655 1297.9 251.431C1297.71 252.886 1297.42 254.729 1295.66 254.923C1293.9 255.117 1292.05 255.214 1290.39 255.991C1289.51 256.476 1288.63 257.252 1288.15 258.125C1287.76 258.998 1287.95 259.968 1287.76 260.939C1287.46 262.2 1286.88 263.267 1286.1 264.237C1285.71 264.722 1285.32 265.013 1285.22 265.595C1285.02 266.275 1285.02 266.76 1284.73 267.342C1284.63 267.148 1284.44 267.633 1284.14 267.73Z" fill="url(#paint3_linear_0_1)"/>
  <defs>
  <linearGradient id="paint0_linear_0_1" x1="1690.37" y1="211.015" x2="1690.37" y2="32.2339" gradientUnits="userSpaceOnUse">
  <stop stop-color="white" stop-opacity="0"/>
  <stop offset="1" stop-color="white"/>
  </linearGradient>
  <linearGradient id="paint1_linear_0_1" x1="343.853" y1="254.659" x2="343.853" y2="103.536" gradientUnits="userSpaceOnUse">
  <stop stop-color="white" stop-opacity="0"/>
  <stop offset="1" stop-color="white"/>
  </linearGradient>
  <linearGradient id="paint2_linear_0_1" x1="107.025" y1="312.981" x2="107.025" y2="159.899" gradientUnits="userSpaceOnUse">
  <stop stop-color="white" stop-opacity="0"/>
  <stop offset="1" stop-color="white" stop-opacity="0.5"/>
  <stop offset="1" stop-color="white" stop-opacity="0.5"/>
  </linearGradient>
  <linearGradient id="paint3_linear_0_1" x1="1228.77" y1="297.13" x2="1228.77" y2="244.798" gradientUnits="userSpaceOnUse">
  <stop stop-color="white" stop-opacity="0.31"/>
  <stop offset="1" stop-color="white"/>
  </linearGradient>
  </defs>
  </svg>
  