<svg width="607" height="695" viewBox="0 0 607 695" fill="none" xmlns="http://www.w3.org/2000/svg">
  <path d="M284.278 129.253C283.121 129.398 278.998 129.904 275.237 130.338C233.65 135.039 191.629 157.46 162.698 190.296C146.425 208.884 132.755 233.475 125.595 257.487C116.41 288.225 115.904 323.954 124.149 355.271C125.378 359.828 126.608 364.023 126.969 364.601C127.403 365.324 128.271 365.107 130.875 363.589C132.683 362.504 134.202 361.274 134.202 360.768C134.202 360.262 133.117 355.488 131.743 350.136C128.271 336.25 126.752 324.026 126.825 308.549C126.825 281.644 132.249 257.921 143.894 234.053C167.833 185.089 212.458 150.734 265.473 140.391C287.243 136.124 313.136 136.414 335.05 141.187C378.012 150.517 416.272 176.844 441.369 214.381C467.841 253.943 476.303 304.571 464.297 351.51C462.922 356.862 461.91 361.274 461.982 361.347C463.718 362.648 469.215 365.397 469.504 365.107C470.227 364.384 473.265 353.391 474.784 345.869C481.799 312.02 478.762 275.424 466.394 243.817C453.448 210.837 432.907 184.221 403.977 163.029C380.905 146.105 354 135.184 324.419 130.627C317.258 129.47 289.268 128.53 284.278 129.253Z" fill="#3E3E3E"/>
  <path d="M288.4 167.947C228.732 172.504 177.091 216.189 162.481 274.556C158.576 290.178 157.274 312.816 159.444 327.715C160.745 336.973 163.132 346.52 164.072 346.447C165.447 346.375 171.45 342.469 171.305 341.746C171.233 341.385 170.726 338.636 170.075 335.671C167.038 320.916 166.748 300.014 169.28 285.766C172.824 266.021 181.286 246.566 193.364 230.075C198.138 223.638 210.94 210.33 217.015 205.484C234.373 191.743 255.203 182.34 277.335 178.362C286.231 176.699 304.384 176.193 313.57 177.205C329.915 179.086 345.538 183.714 359.497 190.875C411.499 217.418 439.923 273.977 430.086 331.331C429.291 335.96 428.423 340.227 428.206 340.878C427.844 341.674 428.857 342.686 431.967 344.567C434.281 346.013 436.234 347.026 436.379 346.954C436.451 346.809 437.319 342.831 438.332 338.13C450.193 280.197 426.181 222.481 376.855 190.368C356.676 177.205 334.472 169.756 309.953 167.875C299.322 167.08 299.322 167.08 288.4 167.947Z" fill="#5B5B5B"/>
  <path d="M284.278 206.57C245.728 212.79 213.905 239.478 201.899 275.713C197.632 288.587 196.764 294.011 196.764 308.549C196.764 315.709 197.053 322.797 197.342 324.244L197.921 326.92L201.682 324.75L205.443 322.58V309.417C205.443 294.879 206.383 288.949 210.289 277.811C220.414 249.17 244.137 226.459 272.778 218.142C328.107 202.013 384.015 237.308 393.49 294.301C394.43 299.87 394.647 304.499 394.43 312.165L394.141 322.508L397.902 324.678C401.662 326.847 401.662 326.847 402.169 325.256C402.386 324.461 402.82 318.819 403.037 312.888C404.122 283.524 393.707 256.691 373.311 236.296C358.267 221.252 341.198 211.922 320.947 207.582C311.617 205.629 293.391 205.123 284.278 206.57Z" fill="#8F8F8F"/>
  <path d="M285.724 255.389C270.391 259.367 258.024 267.757 249.561 279.618C229.383 308.043 236.687 348.039 265.473 367.133C273.357 372.34 280.011 374.727 293.897 377.331L295.488 377.62V434.323V491.027L297.875 491.244C299.105 491.388 301.057 491.461 302.215 491.316L304.167 491.099V434.396C304.167 372.629 303.878 376.897 308.073 376.897C311.038 376.897 321.019 374.004 325.648 371.906C343.151 363.661 355.736 348.111 360.22 329.162C362.028 321.35 361.883 308.187 359.931 300.593C353.855 277.593 335.34 259.729 312.702 255.1C305.035 253.509 292.234 253.654 285.724 255.389ZM313.208 263.635C331.362 268.48 346.695 283.596 351.685 301.678C353.711 309.055 353.494 323.593 351.324 330.608C343.947 354.042 323.84 368.941 299.611 368.941C285.218 368.941 271.982 363.444 262.001 353.318C252.238 343.554 247.392 332.489 246.524 318.313C244.933 292.059 263.376 268.408 289.63 262.911C295.488 261.682 307.133 262.043 313.208 263.635Z" fill="white"/>
  <path d="M232.059 401.487C226.996 412.77 219.546 428.103 216.436 433.672C200.452 462.53 185.264 475.187 163.06 478.153C149.535 479.961 132.394 475.911 120.532 468.244L117.278 466.147L115.108 468.606L112.938 471.065L115.036 472.873C122.196 478.731 130.73 483.071 139.626 485.458C147.799 487.627 162.409 487.7 171.233 485.53C191.412 480.612 205.66 468.099 222.15 440.905C225.26 435.77 227.936 432.009 228.008 432.587C228.153 433.166 228.876 438.084 229.672 443.436C231.552 455.732 233.867 464.411 238.496 476.345C247.681 499.778 264.316 527.262 285.001 553.371L292.74 563.135L285.58 569.862C276.322 578.685 266.124 586.931 259.181 591.198C253.539 594.742 237.845 601.034 226.779 604.216C212.892 608.267 198.283 609.352 188.085 607.254C185.336 606.675 180.273 604.867 176.874 603.204C168.557 599.081 160.239 590.908 156.189 582.736C153.658 577.528 153.368 576.443 153.151 569.862C152.573 556.554 154.959 550.044 163.494 541.365C170.582 534.205 174.198 532.831 185.915 532.831C193.075 532.831 195.823 533.193 201.682 534.784C210.072 537.098 222.946 542.233 230.251 546.211C233.216 547.802 235.675 549.032 235.82 548.887C236.471 548.164 240.521 541.221 240.521 540.787C240.521 540.57 237.049 538.617 232.782 536.447C212.241 526.177 191.846 521.476 177.597 523.646C163.566 525.815 153.007 535.001 146.642 550.623C144.183 556.626 143.677 567.62 145.34 576.516C147.148 586.424 151.126 593.585 159.082 601.468C169.569 611.883 177.959 615.427 193.581 616.078C208.191 616.729 223.669 614.053 241.172 607.977C262.002 600.672 273.212 593.802 293.536 575.575L299.177 570.513L302.938 574.129C312.702 583.604 328.541 595.537 337.22 599.877C347.563 605.157 367.018 611.738 379.314 614.197C388.861 616.078 404.773 616.801 411.643 615.644C423.65 613.619 431.244 609.569 440.14 600.455C449.831 590.547 453.303 581.289 453.375 565.305C453.448 556.698 453.303 555.469 451.495 550.84C447.372 540.425 438.91 530.444 431.171 526.9C415.187 519.595 392.694 522.922 364.415 536.881L357.11 540.497L359.641 544.765C361.088 547.151 362.462 548.96 362.679 548.815C368.754 545.488 383.219 539.051 389.078 537.098C411.643 529.504 424.445 530.878 435.149 541.872C442.888 549.972 445.781 558.217 444.986 570.296C444.552 577.818 442.599 582.808 437.753 589.173C430.665 598.503 420.467 605.084 409.763 607.326C401.952 608.99 387.27 608.339 377.578 605.88C360.798 601.757 345.031 595.465 335.846 589.39C329.264 584.978 316.318 574.057 309.736 567.33L305.614 563.063L310.749 556.626C338.161 522.416 357.11 489.002 364.921 461.156C365.861 457.974 367.452 450.307 368.465 444.16L370.418 433.021L375.264 441.05C384.811 456.817 391.971 465.785 400.722 472.801C412.945 482.637 425.096 486.904 441.225 487.049C446.577 487.121 452.508 486.687 454.967 486.181C464.369 484.156 475.29 478.804 481.872 473.018L484.259 470.992L482.378 468.823C481.365 467.593 480.208 466.581 479.847 466.581C479.485 466.581 477.46 467.665 475.362 469.04C460.246 478.731 438.404 481.263 421.986 475.26C413.596 472.222 408.027 468.533 400.65 461.228C389.873 450.452 379.748 433.455 365.21 401.487L363.691 398.305L363.185 405.465C362.462 415.229 359.424 439.531 357.978 446.691C352.192 475.332 333.749 511.567 306.554 547.73L298.888 557.928L297.513 556.192C279.287 533.265 262.218 506.215 252.238 484.3C241.823 461.228 237.917 444.738 234.518 408.358L233.505 398.233L232.059 401.487Z" fill="white"/>
  <path d="M89.4323 500.646C70.5553 510.699 58.0429 519.668 46.9048 531.167C32.3673 546.066 26.2919 559.085 26.2919 575.141C26.2196 621.141 93.6272 665.621 192.858 684.932C300.985 705.979 424.662 693.394 505.305 653.109C543.204 634.087 566.565 611.16 572.93 586.569C574.521 580.421 574.521 568.921 572.858 562.774C568.156 544.837 553.185 527.045 529.824 511.639C523.025 507.155 507.62 498.476 505.305 497.898C504.22 497.608 502.195 498.115 499.592 499.416L495.614 501.369L502.412 505.492C517.094 514.46 530.475 526.105 538.72 537.098C543.493 543.463 548.628 553.588 550.437 560.242C551.087 562.629 551.811 567.837 552.028 571.814C553.981 606.675 523.893 638.209 467.624 660.052C378.735 694.551 242.257 696.866 147.221 665.476C98.9793 649.492 65.9988 626.493 53.4864 600.022C49.0745 590.619 47.845 585.05 47.845 574.707C47.845 567.837 48.2066 564.799 49.4362 560.242C55.2945 539.774 72.6527 520.246 98.9793 504.479L106.067 500.284L102.234 498.259C100.137 497.174 98.256 496.306 98.0391 496.306C97.8221 496.234 93.9888 498.259 89.4323 500.646Z" fill="#5A5A5A"/>
  <mask id="path-7-inside-1_0_1" fill="white">
  <path d="M68.8816 443.811C49.4601 404.464 40.2976 360.766 42.2602 316.847C44.2229 272.928 57.2459 230.241 80.0981 192.82C102.95 155.399 134.876 124.482 172.858 102.991C210.84 81.4999 253.622 70.1456 297.16 70.0014C340.698 69.8572 383.554 80.9279 421.674 102.167C459.795 123.406 491.921 154.111 515.016 191.379C538.111 228.648 551.411 271.249 553.659 315.153C555.907 359.058 547.028 402.817 527.862 442.291L526.37 441.553C545.411 402.334 554.232 358.86 551.999 315.24C549.766 271.62 536.552 229.296 513.607 192.27C490.662 155.243 458.744 124.737 420.871 103.636C382.998 82.5351 340.421 71.5364 297.166 71.6796C253.91 71.8228 211.406 83.1034 173.671 104.455C135.935 125.806 104.217 156.523 81.5127 193.701C58.8089 230.878 45.8704 273.289 43.9205 316.923C41.9705 360.556 51.0736 403.971 70.3691 443.063L68.8816 443.811Z"/>
  </mask>
  <path d="M68.8816 443.811C49.4601 404.464 40.2976 360.766 42.2602 316.847C44.2229 272.928 57.2459 230.241 80.0981 192.82C102.95 155.399 134.876 124.482 172.858 102.991C210.84 81.4999 253.622 70.1456 297.16 70.0014C340.698 69.8572 383.554 80.9279 421.674 102.167C459.795 123.406 491.921 154.111 515.016 191.379C538.111 228.648 551.411 271.249 553.659 315.153C555.907 359.058 547.028 402.817 527.862 442.291L526.37 441.553C545.411 402.334 554.232 358.86 551.999 315.24C549.766 271.62 536.552 229.296 513.607 192.27C490.662 155.243 458.744 124.737 420.871 103.636C382.998 82.5351 340.421 71.5364 297.166 71.6796C253.91 71.8228 211.406 83.1034 173.671 104.455C135.935 125.806 104.217 156.523 81.5127 193.701C58.8089 230.878 45.8704 273.289 43.9205 316.923C41.9705 360.556 51.0736 403.971 70.3691 443.063L68.8816 443.811Z" fill="white" stroke="#EC5E30" stroke-width="2" mask="url(#path-7-inside-1_0_1)"/>
  <circle cx="551.5" cy="411.5" r="55.5" fill="black"/>
  <circle cx="55.5" cy="55.5" r="55.5" transform="matrix(-1 0 0 1 111 356)" fill="black"/>
  <circle cx="551.5" cy="261.5" r="55.5" fill="black"/>
  <circle cx="55.5" cy="55.5" r="55.5" transform="matrix(-1 0 0 1 111 206)" fill="black"/>
  <circle cx="474" cy="129" r="56" fill="black"/>
  <circle cx="56" cy="56" r="56" transform="matrix(-1 0 0 1 189 73)" fill="black"/>
  <circle cx="56" cy="56" r="56" transform="matrix(-1 0 0 1 356 0)" fill="black"/>
  <path d="M303.789 36.5675C301.715 34.0652 299.958 31.563 299.571 31.0268C299.536 30.9911 299.466 30.9911 299.431 31.0268C299.079 31.563 297.287 34.0652 295.213 36.5675C277.498 59.5523 297.99 75.0661 297.99 75.0661L298.165 75.1734C298.306 77.5684 298.693 81 298.693 81H299.466H300.239C300.239 81 300.626 77.5684 300.766 75.1734L300.942 75.0304C301.012 75.0661 321.504 59.5523 303.789 36.5675ZM299.501 74.7087C299.501 74.7087 298.587 73.9223 298.341 73.4933V73.4576L299.466 48.4352C299.466 48.3637 299.571 48.3637 299.571 48.4352L300.696 73.4576V73.4933C300.45 73.9223 299.501 74.7087 299.501 74.7087Z" fill="white"/>
  <path d="M475.62 112.938C479.494 109.567 483.329 108.157 485.675 109.509C488.121 110.919 488.837 115.203 487.741 120.521C487.675 120.845 487.6 121.174 487.519 121.507C488.016 121.651 488.498 121.804 488.965 121.964C493.82 123.637 496.959 126.255 496.959 128.962C496.959 131.786 493.605 134.546 488.451 136.254C488.179 136.344 487.901 136.431 487.617 136.515C487.717 136.922 487.806 137.323 487.885 137.717C488.902 142.856 488.119 147.08 485.707 148.476C483.373 149.828 479.599 148.5 475.778 145.212C475.375 144.865 474.97 144.496 474.562 144.104C474.249 144.407 473.936 144.695 473.624 144.968C469.68 148.416 465.629 149.848 463.215 148.455C460.878 147.108 460.143 143.175 461.084 138.222C461.183 137.7 461.301 137.166 461.437 136.619C461.019 136.498 460.613 136.371 460.221 136.238C455.263 134.543 452 131.749 452 128.962C452 126.264 455.04 123.664 459.799 122.004C460.332 121.819 460.887 121.644 461.464 121.48C461.338 120.975 461.227 120.479 461.133 119.992C460.146 114.952 460.84 110.923 463.183 109.568C465.626 108.153 469.696 109.672 473.756 113.278C474.004 113.498 474.252 113.727 474.501 113.965L474.801 113.678L475.304 113.217L475.62 112.938ZM485.758 137.002L485.256 137.115C483.413 137.505 481.547 137.781 479.67 137.941C478.522 139.619 477.263 141.217 475.901 142.726C476.279 143.091 476.656 143.434 477.031 143.756C480.298 146.568 483.328 147.635 484.745 146.814C486.238 145.95 486.876 142.511 486.001 138.09C485.931 137.735 485.85 137.373 485.758 137.002ZM463.301 137.089L463.194 137.53L463.05 138.188L462.972 138.581C462.168 142.816 462.757 145.974 464.175 146.791C465.67 147.653 468.968 146.488 472.361 143.522C472.646 143.273 472.932 143.01 473.219 142.732C471.828 141.231 470.538 139.638 469.358 137.966C467.321 137.811 465.297 137.518 463.3 137.089H463.301ZM477.193 138.107L476.952 138.115C476.138 138.148 475.315 138.165 474.481 138.165C473.589 138.165 472.712 138.148 471.85 138.114C472.738 139.284 473.646 140.37 474.556 141.353C475.489 140.316 476.369 139.233 477.192 138.107H477.193ZM474.479 121.76C473.094 121.76 471.722 121.812 470.385 121.913C469.63 123.018 468.9 124.18 468.205 125.383L467.945 125.839C467.352 126.891 466.799 127.951 466.292 129.007C466.873 130.213 467.515 131.427 468.211 132.63C468.909 133.836 469.646 135.003 470.408 136.115C471.718 136.2 473.08 136.243 474.479 136.243C475.884 136.243 477.262 136.195 478.596 136.099C479.328 135.002 480.05 133.838 480.752 132.619C481.455 131.4 482.101 130.182 482.686 128.978C482.099 127.796 481.451 126.59 480.746 125.373C480.049 124.169 479.324 123.011 478.58 121.913C477.245 121.813 475.872 121.76 474.479 121.76ZM465.274 131.266L465.031 131.857C464.564 133.009 464.157 134.141 463.818 135.237C465.187 135.529 466.57 135.751 467.961 135.902C467.478 135.15 467.007 134.381 466.551 133.593C466.103 132.821 465.677 132.045 465.274 131.266ZM483.722 131.198L483.608 131.413C483.23 132.134 482.833 132.856 482.416 133.579C481.964 134.364 481.504 135.126 481.037 135.866C482.447 135.702 483.847 135.463 485.232 135.152C484.797 133.809 484.293 132.489 483.722 131.198ZM461.98 123.331L461.594 123.442C461.194 123.561 460.807 123.686 460.432 123.817C456.361 125.237 453.921 127.324 453.921 128.962C453.921 130.687 456.577 132.963 460.842 134.42C461.199 134.542 461.568 134.658 461.951 134.768C462.564 132.802 463.305 130.878 464.17 129.009C463.316 127.167 462.584 125.27 461.98 123.331ZM487.003 123.359L486.891 123.719C486.308 125.511 485.615 127.265 484.816 128.972C485.703 130.816 486.464 132.719 487.092 134.666L487.278 134.612L487.848 134.431C492.298 132.956 495.038 130.7 495.038 128.962C495.038 127.33 492.501 125.213 488.341 123.781C487.91 123.633 487.464 123.492 487.004 123.359H487.003ZM474.479 124.948C475.273 124.947 476.05 125.183 476.71 125.624C477.37 126.065 477.885 126.692 478.189 127.426C478.493 128.159 478.572 128.966 478.417 129.745C478.262 130.524 477.88 131.239 477.319 131.801C476.757 132.362 476.042 132.745 475.263 132.9C474.484 133.055 473.677 132.975 472.943 132.671C472.21 132.367 471.583 131.853 471.142 131.193C470.701 130.532 470.465 129.756 470.465 128.962C470.465 127.897 470.888 126.876 471.641 126.124C472.394 125.371 473.415 124.948 474.479 124.948ZM481.044 122.162L481.129 122.297C481.565 122.984 481.992 123.689 482.41 124.411C482.864 125.196 483.295 125.976 483.704 126.751C484.248 125.485 484.729 124.192 485.143 122.877C483.851 122.585 482.477 122.344 481.044 122.163V122.162ZM467.92 122.159L467.613 122.198C466.298 122.37 465.035 122.592 463.844 122.858C464.235 124.118 464.714 125.422 465.273 126.748C465.674 125.971 466.097 125.196 466.541 124.425L466.848 123.893H466.854L467.088 123.5C467.36 123.047 467.638 122.6 467.92 122.16L467.92 122.159ZM484.623 111.124C483.17 110.407 480.129 111.56 476.881 114.387C476.537 114.686 476.193 115.002 475.847 115.334C477.219 116.828 478.489 118.413 479.647 120.078C481.669 120.261 483.677 120.578 485.657 121.027L485.733 120.718L485.86 120.134C486.806 115.543 486.221 112.041 484.715 111.173L484.623 111.124ZM472.266 114.526C468.84 111.551 465.618 110.377 464.145 111.23C462.733 112.048 462.172 115.305 463.018 119.623C463.106 120.075 463.209 120.537 463.327 121.008C465.304 120.567 467.307 120.255 469.324 120.074C470.495 118.412 471.775 116.828 473.155 115.335C472.929 115.12 472.705 114.913 472.48 114.714L472.266 114.526ZM474.5 116.707L474.037 117.218C473.294 118.049 472.556 118.947 471.833 119.901C472.706 119.86 473.59 119.839 474.48 119.839C475.377 119.839 476.266 119.86 477.147 119.902C476.319 118.793 475.436 117.726 474.5 116.706V116.707Z" fill="white"/>
  <path d="M562.089 403.725L562.487 399.35H540.513L541.681 412.7H556.894L556.347 418.4L551.451 419.725L546.579 418.4L546.256 414.9H541.905L542.452 421.85L551.451 424.35H551.551V424.325L560.475 421.85L561.717 408.25H545.708L545.335 403.725H562.089ZM534 392H569L565.818 427.95L551.451 432L537.182 427.95L534 392Z" fill="white"/>
  <path d="M132.509 109C131.946 109 131.383 109.138 130.897 109.415L115.603 118.216C114.616 118.785 114 119.863 114 121.001V136.969C114 138.123 114.616 139.185 115.603 139.754L119.618 142.062C121.563 143.016 122.256 143.014 123.136 143.014C126.021 143.014 127.672 141.276 127.672 138.261V121.785C127.672 121.539 127.473 121.338 127.226 121.338H125.297C125.034 121.338 124.848 121.539 124.848 121.785V138.246C124.848 139.6 123.445 140.922 121.177 139.799L116.978 137.383C116.824 137.306 116.731 137.138 116.731 136.969V121.016C116.731 120.832 116.824 120.676 116.978 120.584L132.271 111.785C132.41 111.693 132.596 111.693 132.751 111.785L148.044 120.584C148.198 120.676 148.291 120.832 148.291 121.001V136.969C148.291 137.138 148.198 137.306 148.059 137.383L132.751 146.2C132.612 146.276 132.41 146.276 132.271 146.2L128.335 143.877C128.227 143.8 128.075 143.785 127.967 143.847C126.872 144.462 126.671 144.539 125.652 144.892C125.406 144.969 125.019 145.123 125.791 145.553L130.897 148.57C131.391 148.847 131.948 149 132.503 149C133.074 149 133.628 148.847 134.122 148.57L149.434 139.754C150.421 139.185 151.037 138.123 151.037 136.969V121.016C151.037 119.862 150.421 118.8 149.434 118.231L134.122 109.415C133.636 109.138 133.073 109 132.509 109ZM136.624 121.317C132.256 121.317 129.649 123.162 129.649 126.239C129.649 129.577 132.239 130.499 136.437 130.914C141.452 131.406 141.838 132.147 141.838 133.132C141.838 134.824 140.467 135.547 137.242 135.547C133.183 135.547 132.287 134.531 131.994 132.531C131.963 132.315 131.779 132.161 131.563 132.161H129.571C129.324 132.161 129.14 132.363 129.14 132.594C129.14 135.163 130.544 138.222 137.242 138.222C142.087 138.222 144.864 136.316 144.864 132.993C144.864 129.701 142.626 128.822 137.935 128.192C133.166 127.576 132.687 127.253 132.687 126.145C132.687 125.222 133.105 124.009 136.624 124.009C139.756 124.009 140.929 124.684 141.407 126.791C141.453 126.991 141.622 127.146 141.838 127.146H143.83C143.954 127.146 144.06 127.085 144.153 126.993C144.23 126.916 144.277 126.792 144.261 126.653C143.953 123.022 141.531 121.317 136.624 121.317Z" fill="white"/>
  <path d="M43.9324 259.622C43.9324 260.281 44.003 260.814 44.1266 261.206C44.2679 261.598 44.4434 262.025 44.6907 262.488C44.779 262.63 44.8143 262.773 44.8143 262.897C44.8143 263.075 44.7084 263.253 44.4799 263.432L43.3694 264.179C43.2104 264.286 43.0526 264.339 42.9113 264.339C42.7347 264.339 42.5592 264.25 42.3826 264.09C42.1353 263.822 41.9245 263.538 41.7479 263.253C41.5712 262.95 41.3957 262.613 41.2015 262.203C39.8272 263.84 38.0997 264.659 36.02 264.659C34.5398 264.659 33.3587 264.232 32.4955 263.378C31.6323 262.523 31.1919 261.384 31.1919 259.96C31.1919 258.448 31.7206 257.219 32.7957 256.294C33.8709 255.369 35.2981 254.906 37.1128 254.906C37.7122 254.906 38.3293 254.959 38.9805 255.048C39.6318 255.137 40.3018 255.28 41.0072 255.44V254.141C41.0072 252.788 40.7257 251.845 40.1793 251.293C39.6152 250.741 38.6637 250.474 37.3071 250.474C36.6901 250.474 36.0565 250.544 35.4041 250.706C34.7517 250.866 34.1181 251.061 33.5011 251.31C33.2196 251.435 33.0077 251.506 32.884 251.542C32.7604 251.578 32.6721 251.595 32.6026 251.595C32.3553 251.595 32.2328 251.417 32.2328 251.043V250.171C32.2328 249.886 32.2681 249.673 32.3564 249.549C32.4447 249.424 32.6037 249.299 32.8498 249.174C33.4669 248.854 34.2064 248.587 35.0707 248.373C35.934 248.141 36.8501 248.035 37.8193 248.035C39.9166 248.035 41.4498 248.515 42.4367 249.477C43.4058 250.438 43.8992 251.898 43.8992 253.855V259.621L43.9324 259.622ZM36.7773 262.327C37.359 262.327 37.9584 262.22 38.592 262.007C39.2267 261.794 39.7908 261.402 40.2665 260.867C40.548 260.53 40.7599 260.155 40.8659 259.728C40.9719 259.301 41.0425 258.784 41.0425 258.18V257.432C40.5314 257.308 39.985 257.2 39.421 257.13C38.8569 257.059 38.3105 257.023 37.7641 257.023C36.583 257.023 35.7198 257.255 35.1381 257.735C34.5564 258.215 34.2749 258.892 34.2749 259.781C34.2749 260.618 34.4868 261.241 34.9273 261.668C35.35 262.114 35.9671 262.327 36.7773 262.327ZM50.9285 264.25C50.6117 264.25 50.3997 264.197 50.2584 264.072C50.1172 263.965 49.9946 263.716 49.8887 263.378L45.7471 249.62C45.6411 249.265 45.5881 249.033 45.5881 248.908C45.5881 248.624 45.7294 248.464 46.0109 248.464H47.7384C48.0729 248.464 48.3025 248.517 48.4261 248.641C48.5674 248.748 48.6722 248.997 48.7782 249.336L51.7387 261.118L54.4873 249.336C54.5756 248.98 54.6815 248.748 54.8217 248.641C54.963 248.534 55.2092 248.464 55.5271 248.464H56.9367C57.2711 248.464 57.5007 248.517 57.642 248.641C57.7833 248.748 57.9058 248.997 57.9765 249.336L60.7604 261.26L63.8092 249.336C63.9151 248.98 64.0388 248.748 64.1613 248.641C64.3026 248.534 64.5311 248.464 64.849 248.464H66.4882C66.7697 248.464 66.9286 248.606 66.9286 248.908C66.9286 248.998 66.9109 249.086 66.8933 249.193C66.8756 249.3 66.8403 249.443 66.7697 249.638L62.5232 263.395C62.4172 263.751 62.2936 263.982 62.1534 264.09C62.0132 264.197 61.7836 264.267 61.4834 264.267H59.9678C59.6333 264.267 59.4037 264.214 59.2625 264.09C59.1212 263.965 58.9986 263.734 58.928 263.378L56.1971 251.898L53.4839 263.36C53.3956 263.715 53.2896 263.947 53.1494 264.072C53.0081 264.197 52.762 264.25 52.444 264.25H50.9285ZM73.5726 264.73C72.6564 264.73 71.7402 264.623 70.8594 264.41C69.9785 264.197 69.2908 263.965 68.8327 263.698C68.5512 263.538 68.357 263.36 68.2863 263.2C68.2157 263.04 68.1804 262.862 68.1804 262.702V261.795C68.1804 261.42 68.3216 261.243 68.5855 261.243C68.6914 261.243 68.7974 261.26 68.9023 261.296C69.0082 261.331 69.1661 261.403 69.3427 261.473C69.9421 261.741 70.5933 261.954 71.281 262.096C71.9864 262.238 72.673 262.309 73.3783 262.309C74.4888 262.309 75.352 262.114 75.9514 261.722C76.5508 261.33 76.8676 260.76 76.8676 260.031C76.8676 259.533 76.7086 259.123 76.3918 258.784C76.075 258.447 75.4756 258.144 74.6124 257.859L72.057 257.058C70.7711 256.649 69.8196 256.044 69.2378 255.242C68.6561 254.46 68.357 253.588 68.357 252.662C68.357 251.914 68.5159 251.255 68.8327 250.686C69.1495 250.116 69.5734 249.618 70.101 249.226C70.6298 248.817 71.2292 248.514 71.9334 248.301C72.6388 248.089 73.3783 248 74.1543 248C74.5418 248 74.9469 248.018 75.3354 248.071C75.7405 248.124 76.1103 248.195 76.4812 248.266C76.8333 248.355 77.1689 248.444 77.4857 248.551C77.8025 248.658 78.0498 248.764 78.2264 248.871C78.4736 249.013 78.6492 249.156 78.7551 249.316C78.8611 249.458 78.9141 249.654 78.9141 249.903V250.74C78.9141 251.114 78.7728 251.309 78.509 251.309C78.3677 251.309 78.1392 251.239 77.8389 251.096C76.8344 250.634 75.7063 250.402 74.4557 250.402C73.4512 250.402 72.6586 250.562 72.1122 250.9C71.5658 251.238 71.2843 251.754 71.2843 252.484C71.2843 252.982 71.461 253.409 71.8131 253.748C72.1652 254.085 72.8176 254.424 73.7514 254.727L76.2538 255.528C77.5221 255.938 78.4394 256.507 78.9847 257.237C79.53 257.967 79.7949 258.803 79.7949 259.728C79.7949 260.493 79.636 261.188 79.3368 261.792C79.02 262.397 78.5962 262.932 78.0509 263.359C77.5045 263.804 76.8521 264.124 76.0949 264.356C75.299 264.605 74.4711 264.73 73.5726 264.73Z" fill="white"/>
  <path d="M76.9029 273.379C71.1056 277.704 62.6822 280 55.4388 280C45.289 280 36.1426 276.209 29.2348 269.909C28.6884 269.411 29.1818 268.734 29.8342 269.126C37.3061 273.504 46.522 276.156 56.0558 276.156C62.4879 276.156 69.5547 274.804 76.0563 272.027C77.0265 271.582 77.8544 272.667 76.9029 273.379ZM79.317 270.603C78.5763 269.641 74.4182 270.14 72.5328 270.371C71.9688 270.442 71.8805 269.944 72.3915 269.57C75.7041 267.221 81.1494 267.896 81.7841 268.68C82.4188 269.481 81.6075 274.981 78.5068 277.614C78.031 278.024 77.5729 277.81 77.7838 277.277C78.4891 275.515 80.0577 271.546 79.317 270.603Z" fill="white"/>
  <path d="M552 241C540.958 241 532 249.96 532 261C532 272.043 540.957 281.002 552 281C563.04 281 572 272.042 572 261C572 249.96 563.04 241 552 241ZM552 244.077C561.34 244.077 568.923 251.66 568.923 261C568.923 270.342 561.338 277.925 552 277.923C542.658 277.923 535.077 270.342 535.077 261C535.077 251.66 542.658 244.077 552 244.077ZM551.997 250.237C551.423 250.237 550.847 250.546 550.582 251.165L542.412 270.231H545.759L549.139 262.346L558.271 269.882C559.508 270.904 561.297 269.565 560.666 268.088L553.412 251.165C553.146 250.546 552.571 250.237 551.997 250.237ZM551.997 255.675L555.338 263.473L550.401 259.398L551.997 255.675Z" fill="white"/>
  <path d="M64.9484 405.371C66.1685 404.57 67.096 403.403 67.5937 402.041C68.0914 400.68 68.133 399.196 67.7122 397.809C67.2915 396.422 66.4308 395.206 65.2573 394.34C64.0838 393.474 62.6597 393.004 61.1955 393H49.8233C48.3591 393.004 46.9351 393.474 45.7616 394.34C44.5881 395.206 43.7274 396.422 43.3066 397.809C42.8859 399.196 42.9274 400.68 43.4252 402.041C43.9229 403.403 44.8503 404.57 46.0705 405.371C45.1322 405.986 44.3625 406.822 43.83 407.803C43.2975 408.784 43.0189 409.88 43.0189 410.994C43.0189 412.107 43.2975 413.204 43.83 414.185C44.3625 415.166 45.1322 416.001 46.0705 416.617C45.0839 417.259 44.2829 418.144 43.7459 419.185C43.2089 420.225 42.9542 421.386 43.0068 422.553C43.0594 423.72 43.4174 424.853 44.0459 425.842C44.6744 426.832 45.5518 427.642 46.5922 428.196C47.6327 428.749 48.8005 429.025 49.9815 428.998C51.1625 428.971 52.3161 428.641 53.3295 428.041C54.3429 427.441 55.1813 426.591 55.7628 425.574C56.3443 424.557 56.6488 423.408 56.6467 422.24V416.055C57.9228 417.116 59.5286 417.711 61.1955 417.742C62.6597 417.738 64.0838 417.268 65.2573 416.402C66.4308 415.536 67.2915 414.32 67.7122 412.933C68.133 411.546 68.0914 410.062 67.5937 408.7C67.096 407.338 66.1685 406.171 64.9484 405.371ZM56.6467 395.249H61.1955C62.402 395.249 63.559 395.723 64.4121 396.567C65.2652 397.41 65.7444 398.555 65.7444 399.748C65.7444 400.941 65.2652 402.085 64.4121 402.929C63.559 403.772 62.402 404.246 61.1955 404.246H56.6467V395.249ZM45.2744 399.748C45.2744 398.555 45.7537 397.41 46.6068 396.567C47.4599 395.723 48.6169 395.249 49.8233 395.249H54.3722V404.246H49.8233C48.6169 404.246 47.4599 403.772 46.6068 402.929C45.7537 402.085 45.2744 400.941 45.2744 399.748ZM45.2744 410.994C45.2744 409.801 45.7537 408.657 46.6068 407.813C47.4599 406.969 48.6169 406.495 49.8233 406.495H54.3722V415.492H49.8233C48.6169 415.492 47.4599 415.018 46.6068 414.175C45.7537 413.331 45.2744 412.187 45.2744 410.994ZM54.3722 422.24C54.3722 423.13 54.1054 423.999 53.6056 424.739C53.1057 425.479 52.3953 426.056 51.5641 426.396C50.7329 426.736 49.8183 426.826 48.9359 426.652C48.0535 426.478 47.2429 426.05 46.6068 425.421C45.9706 424.792 45.5374 423.99 45.3618 423.118C45.1863 422.245 45.2764 421.34 45.6207 420.518C45.965 419.696 46.548 418.994 47.2961 418.5C48.0442 418.005 48.9236 417.742 49.8233 417.742H54.3722V422.24ZM61.1955 415.492C60.2959 415.492 59.4164 415.228 58.6683 414.734C57.9203 414.24 57.3372 413.537 56.9929 412.715C56.6486 411.893 56.5585 410.989 56.7341 410.116C56.9096 409.244 57.3428 408.442 57.979 407.813C58.6152 407.184 59.4257 406.755 60.3081 406.582C61.1905 406.408 62.1051 406.497 62.9363 406.838C63.7675 407.178 64.478 407.755 64.9778 408.495C65.4776 409.234 65.7444 410.104 65.7444 410.994C65.7444 412.187 65.2652 413.331 64.4121 414.175C63.559 415.018 62.402 415.492 61.1955 415.492Z" fill="white"/>
  </svg>
  