<svg xmlns="http://www.w3.org/2000/svg" width="1451" height="392" viewBox="0 0 1451 392" fill="none">
  <path d="M64.4736 99.7236C65.4066 99.4939 66.3395 99.2641 67.5057 99.0343C71.0044 98.5748 73.3368 99.2641 76.6022 97.6558C75.436 98.345 66.1063 100.643 67.0392 96.7368C67.5057 95.1285 78.2349 94.8988 80.1009 94.8988C82.2 94.8988 84.2993 95.5881 86.3984 95.8178C94.5619 96.0476 103.425 91.912 111.122 89.3848C123.484 85.479 135.846 81.3434 148.674 79.2756C161.269 77.4376 173.865 76.7484 186.46 74.9103C196.023 73.3021 206.985 70.3153 215.382 65.031C217.714 63.6525 219.114 61.5847 221.679 60.2062C224.012 59.0575 225.878 59.7467 227.977 59.2872C229.843 58.8277 229.843 57.2194 231.242 56.5302C233.808 55.1517 234.974 56.9897 237.073 57.9087C244.304 60.8955 254.567 53.7732 262.03 51.0161C268.794 48.4889 274.859 45.5021 281.856 43.6641C284.422 42.9748 285.355 42.2855 287.92 42.7451C290.02 43.2046 290.719 45.0426 292.352 46.1913C296.317 49.1781 301.682 50.5567 306.347 52.3947C311.711 54.4624 316.376 56.3004 322.207 56.3004C331.537 56.3004 338.767 55.841 347.397 52.3947C353.695 49.8674 360.226 48.0294 366.523 45.5021C371.655 43.4343 378.185 40.2178 383.783 39.5285C385.882 39.2988 388.215 39.2988 390.081 39.5285C393.813 39.7583 392.88 39.988 395.445 42.2856C398.244 44.8128 401.976 46.8806 405.242 48.9484C411.772 53.5434 416.437 60.2062 422.268 65.4905C439.295 80.6541 454.456 97.4261 471.016 113.049C481.279 122.929 495.04 130.051 507.169 137.173C511.367 139.471 515.799 141.538 519.997 143.606C525.128 146.133 530.26 147.512 535.624 149.58C540.289 151.418 543.788 155.094 547.986 157.391C552.185 159.689 556.15 161.986 560.115 164.743C562.914 166.581 565.946 167.5 568.745 169.568C572.244 172.325 575.509 173.704 579.241 176.001C583.206 178.529 587.638 180.826 590.203 184.962C592.302 188.178 593.935 189.786 597.9 189.557C601.399 189.327 601.632 188.178 604.431 186.34C608.396 183.813 613.061 182.205 617.026 179.677C622.391 176.461 628.688 174.163 633.82 170.717C637.318 168.419 640.117 166.122 644.316 165.203C649.68 164.054 652.946 166.581 657.844 168.649C666.707 172.785 675.337 176.691 684.2 180.826C696.795 186.57 711.49 187.948 722.452 196.22C726.884 199.436 730.849 204.031 736.447 204.72C742.744 205.639 750.441 202.423 756.506 201.504C762.103 200.585 769.101 198.517 774.698 198.747C779.13 198.976 783.095 200.355 787.76 200.125C800.588 199.206 813.883 195.071 826.245 191.395C853.301 183.124 880.591 171.177 904.148 155.783C911.845 150.729 918.843 144.985 926.54 140.39C932.604 136.714 938.202 132.808 943.333 127.983C945.432 125.915 949.397 121.091 952.663 120.631C955.462 120.401 955.695 121.55 957.794 123.158C962.692 126.605 969.69 128.213 975.287 129.591C991.848 133.957 1008.41 139.471 1024.97 144.525C1058.56 154.864 1091.91 165.892 1124.56 178.529C1135.99 182.894 1149.75 191.165 1162.58 189.327C1181.47 186.57 1198.97 178.988 1216.93 172.325C1222.99 170.028 1228.36 167.96 1234.89 168.19C1240.02 168.419 1241.42 166.581 1245.38 163.365C1260.54 150.729 1274.54 138.552 1292.26 129.821C1320.72 115.576 1343.58 91.912 1367.84 71.9236C1390.46 53.5434 1415.18 37.6905 1439.21 21.3781C1445.04 17.4723 1450.64 13.5666 1456.23 9.20127C1459.73 6.44424 1463.23 2.53844 1467.43 0.930176C1467.2 4.37646 1465.8 8.05251 1465.33 11.4988C1464.16 19.9996 1464.16 28.2707 1464.16 36.7715C1464.16 61.8145 1464.16 86.6277 1463 111.671C1462.07 130.51 1461.13 149.58 1460.9 168.649C1460.9 184.502 1461.13 200.125 1459.5 215.748C1458.57 225.628 1457.87 235.277 1453.67 244.238C1449.7 252.279 1444.34 258.253 1436.88 263.307C1429.41 267.443 1421.71 270.659 1413.55 273.186C1401.42 277.781 1389.29 281.457 1376.7 284.904C1340.55 295.472 1303.93 304.892 1267.31 312.934C1177.51 332.462 1087.71 349.924 996.746 363.019C871.261 380.94 745.077 394.266 618.192 390.819C516.965 388.062 416.437 383.467 317.076 363.939C280.457 356.816 244.304 348.086 208.618 337.977C184.827 331.543 161.503 323.502 138.878 314.082C118.119 306.73 98.0605 297.77 78.7014 286.972C49.546 267.443 22.0234 241.251 8.4953 208.856C0.565038 189.557 -2.93366 167.041 5.22984 147.282C10.5944 133.727 17.825 121.55 28.7874 111.9C36.7177 104.778 44.1814 103.17 54.4441 102.71C57.9428 102.251 60.975 100.643 64.4736 99.7236Z" fill="url(#paint0_linear_348_654)"/>
  <defs>
    <linearGradient id="paint0_linear_348_654" x1="733.623" y1="109.986" x2="733.623" y2="275.408" gradientUnits="userSpaceOnUse">
      <stop stop-color="#0F0F0F"/>
      <stop offset="1" stop-color="#202020"/>
    </linearGradient>
  </defs>
</svg>