<svg xmlns="http://www.w3.org/2000/svg" width="1599" height="571" viewBox="0 0 1599 571" fill="none">
  <path d="M76.0843 147.824C78.1834 145.756 80.5159 143.688 82.6151 141.39C82.8483 141.62 83.3148 141.85 83.7812 142.08C85.414 140.931 87.0467 139.782 88.6794 138.404C99.4085 129.214 108.039 117.726 119.234 109.225C126.232 103.941 133.462 97.9674 140.459 92.9128C142.559 91.5343 145.124 89.926 147.69 89.6963C153.521 89.007 157.719 94.0616 162.851 95.6698C167.982 97.2781 173.113 97.5079 178.011 95.2103C191.073 88.7773 203.668 79.5872 214.864 70.6269C235.389 54.3145 255.681 38.2318 274.108 19.6219C279.472 14.1078 286.236 2.85001 294.166 0.55249C311.426 24.9062 336.85 42.1376 359.941 61.6665C386.064 83.493 416.386 100.265 441.809 122.551C467.233 144.837 494.989 164.366 519.712 187.571C545.836 211.924 570.559 236.508 598.782 258.334C619.307 274.187 641.465 294.405 667.355 301.528C674.819 303.595 682.05 303.595 689.513 303.595C690.68 303.595 692.079 303.595 693.245 303.595C694.411 303.595 695.344 303.366 696.511 303.366C697.21 303.366 697.91 303.595 698.61 303.595C699.076 303.595 699.776 303.366 700.243 303.136C700.709 303.136 701.409 303.136 701.875 303.136C702.342 303.136 702.808 302.906 703.275 302.676C704.441 302.217 705.374 301.757 706.307 301.298C707.24 300.838 708.173 300.609 708.872 300.149C709.805 299.69 710.738 299.23 711.438 298.771C711.905 298.541 712.138 298.541 712.604 298.311C713.304 298.081 713.537 297.852 714.004 297.622C716.103 296.243 717.969 294.635 720.068 293.257C722.167 292.108 724.5 291.419 726.599 290.04C727.765 289.351 728.465 288.662 729.631 287.743C730.564 287.053 731.264 286.824 732.197 286.364C732.897 286.134 733.363 285.675 733.83 285.215C734.063 284.986 734.063 284.756 734.296 284.526C735.229 284.067 736.628 285.675 737.095 286.364C742.926 292.567 749.457 297.852 755.988 303.366C757.154 304.285 758.32 305.433 759.486 306.582C760.652 307.731 762.052 308.42 763.218 309.569C764.618 310.718 766.25 311.637 767.65 312.786C772.081 315.772 776.513 318.529 781.178 321.057C790.508 326.341 800.071 331.166 809.867 335.531C829.226 344.491 848.818 352.073 868.177 360.804C906.663 378.265 945.847 391.361 986.898 401.47C1003.69 405.605 1019.09 409.971 1036.58 411.809C1059.2 413.876 1082.53 412.268 1105.15 411.119C1130.34 409.741 1155.53 405.605 1180.49 401.7C1211.04 397.105 1240.9 392.28 1270.75 385.387C1317.87 374.589 1365.92 367.007 1413.27 356.898C1426.79 353.911 1440.79 353.452 1454.55 351.154C1463.41 349.776 1470.64 350.235 1479.27 352.073C1484.41 353.222 1489.3 355.749 1494.2 357.817C1502.6 361.493 1510.76 364.71 1519.39 367.926C1530.12 371.832 1541.55 375.278 1552.75 378.035C1561.84 380.333 1567.91 383.549 1576.3 386.995C1578.87 387.914 1602.66 391.361 1597.99 397.334C1597.76 397.564 1588.67 399.632 1587.5 400.091C1575.37 405.146 1562.78 409.052 1550.41 413.876C1474.38 443.514 1394.37 465.111 1315.3 485.789C1248.13 503.25 1180.26 515.657 1112.15 528.293C1048.71 540.01 985.266 552.647 921.124 560.918C858.848 568.959 796.572 570.567 733.83 570.338C662.924 570.108 592.484 568.959 521.578 564.364C477.962 561.607 434.812 558.391 390.962 558.62C356.909 558.85 323.089 558.62 289.035 558.85C270.142 559.08 251.016 557.931 232.124 555.634C216.963 553.796 201.102 551.728 187.108 545.065C176.379 539.781 167.282 536.334 155.154 535.875C147.223 535.645 141.392 533.118 133.695 531.739C125.998 530.361 118.068 531.28 110.371 531.28C101.041 531.28 92.6445 531.51 83.548 533.118C70.2532 535.415 55.3256 533.577 41.7975 533.577C8.44379 533.807 -23.977 525.306 -55.9313 516.346C-76.2234 510.602 -97.2153 509.453 -117.974 504.858C-141.998 499.344 -165.089 490.384 -189.113 484.64C-198.909 482.343 -208.705 480.275 -218.268 476.829C-222.7 475.22 -231.33 473.153 -235.062 469.477C-241.126 463.503 -230.164 456.84 -226.199 452.475C-211.738 436.392 -194.011 423.526 -179.55 407.214C-157.858 382.4 -144.097 350.695 -128.703 322.205C-112.143 291.878 -90.9177 264.538 -76.6899 233.062C-73.6577 226.169 -70.6256 219.966 -69.9258 212.384C-69.6926 209.857 -70.8588 208.019 -68.5264 206.181C-65.4942 207.789 -63.1618 210.546 -60.1296 212.154C-51.9661 216.749 -41.4702 219.047 -32.1405 219.276C-16.0467 219.736 -3.68484 217.668 9.14352 207.559C27.5697 193.314 42.4973 175.394 60.9235 160.919C66.7546 156.324 71.4194 152.189 76.0843 147.824Z" fill="url(#paint0_linear_348_655)"/>
  <defs>
    <linearGradient id="paint0_linear_348_655" x1="681.378" y1="336.909" x2="681.378" y2="110.592" gradientUnits="userSpaceOnUse">
      <stop stop-color="#161616"/>
      <stop offset="1" stop-color="#0B0B0B"/>
    </linearGradient>
  </defs>
</svg>