<svg xmlns="http://www.w3.org/2000/svg" width="1920" height="597" viewBox="0 0 1920 597" fill="none">
  <path d="M1972 238.975C1928.69 127.429 1720.43 -35.1277 1532.22 10.2111C1362.9 50.9985 1244 160.975 1244 350.522C1244 414.173 1324.32 479.083 1340.31 426.146C1356.3 373.209 1264.35 305.147 1196.38 314.6C1128.42 324.053 1060 363 1014 437C954.44 532.814 849.461 582.226 746 593C468 621.95 173.113 317.108 310 151C332.972 123.125 378.787 131.211 382.785 191.71C386.783 252.21 366.793 286.241 296.827 350.522C226.862 414.802 34.9566 456.396 -53 373.209" stroke="#F35820" stroke-width="3"/>
</svg>